<svg xmlns="http://www.w3.org/2000/svg" version="1.1" xmlns:xlink="http://www.w3.org/1999/xlink" xmlns:svgjs="http://svgjs.dev/svgjs" width="1000" height="163" viewBox="0 0 1000 163"><g transform="matrix(1,0,0,1,-0.6817700225245744,-0.35107692307690286)"><svg viewBox="0 0 318 52" data-background-color="#ffffff" preserveAspectRatio="xMidYMid meet" height="163" width="1000" xmlns="http://www.w3.org/2000/svg" xmlns:xlink="http://www.w3.org/1999/xlink"><g id="tight-bounds" transform="matrix(1,0,0,1,0.21680286716281216,0.11199999999999477)"><svg viewBox="0 0 317.5663942656744 51.775999999999996" height="51.775999999999996" width="317.5663942656744"><g><svg viewBox="0 0 317.5663942656744 51.775999999999996" height="51.775999999999996" width="317.5663942656744"><g><svg viewBox="0 0 317.5663942656744 51.775999999999996" height="51.775999999999996" width="317.5663942656744"><g id="textblocktransform"><svg viewBox="0 0 317.5663942656744 51.775999999999996" height="51.775999999999996" width="317.5663942656744" id="textblock"><g><svg viewBox="0 0 317.5663942656744 51.775999999999996" height="51.775999999999996" width="317.5663942656744"><g><svg><g></g><g></g></svg></g><g><svg><g></g><g><svg></svg></g></svg></g><g id="text-0"><svg viewBox="0 0 317.5663942656744 51.775999999999996" height="51.775999999999996" width="317.5663942656744"><g><svg xmlns="http://www.w3.org/2000/svg" xmlns:xlink="http://www.w3.org/1999/xlink" version="1.1" x="0" y="0" viewBox="0.293 4.557 99.41399999999999 93.38499999999998" enable-background="new 0 0 100 100" xml:space="preserve" height="51.775999999999996" width="55.118694265674364" class="icon-n$-0" data-fill-palette-color="accent" id="n$-0"><g fill="#ffc200" data-fill-palette-color="accent"><path d="M29.168 81.498V46.742l22.164-11.781c1.219-0.647 1.682-2.161 1.034-3.381-0.649-1.219-2.162-1.683-3.382-1.034L25.868 42.833c-0.864 0.46-1.341 0.792-1.606 1.729-0.172 0.547-0.094 1.376-0.094 1.861v35.074c-2.979 1.038-5.125 3.867-5.125 7.195v9.25h15.25v-9.25C34.293 85.365 32.146 82.536 29.168 81.498z" fill="#ffc200" data-fill-palette-color="accent"></path><path d="M20.168 48.79L17.5 47.332v6.533c0 3.068 0.955 5.986 2.668 8.634V48.79z" fill="#ffc200" data-fill-palette-color="accent"></path><path d="M49.999 65.094l-2.538-1.388-14.293-8.404v17.169c4.91 1.992 10.67 3.14 16.832 3.14 17.949 0 32.5-9.734 32.5-21.745v-6.534L52.537 63.706 49.999 65.094z" fill="#ffc200" data-fill-palette-color="accent"></path><path d="M50 4.557L0.293 32.002l0.209 0.115 20.001 10.931c0.805-2.468 2.602-3.442 3.487-3.913l23.116-12.287c0.937-0.498 1.991-0.761 3.049-0.761 2.407 0 4.608 1.32 5.743 3.452 1.68 3.166 0.473 7.108-2.689 8.789L33.167 48.98l16.832 10.188 49.559-27.084 0.149-0.082L50 4.557z" fill="#ffc200" data-fill-palette-color="accent"></path><path d="M50.066 30.098c0.06-0.002 0.12 0 0.18 0.001-0.031-0.001-0.061-0.012-0.092-0.012C50.125 30.087 50.096 30.097 50.066 30.098z" fill="#ffc200" data-fill-palette-color="accent"></path></g></svg></g><g transform="matrix(1,0,0,1,67.34269426567437,0)"><svg width="250.22369999999998" viewBox="3.05 -31.9 154.64 32" height="51.775999999999996" data-palette-color="#111111"><path d="M24.1-6.8Q25.05-6.8 25.53-6.08 26-5.35 26-4.5L26-4.5Q26-3.45 25.68-3.03 25.35-2.6 24.45-2.15L24.45-2.15Q22.35-1.15 19.25-0.55 16.15 0.05 12.6 0.05L12.6 0.05Q8.15 0.05 6.08-1.45 4-2.95 3.53-5.08 3.05-7.2 3.05-10.65L3.05-10.65Q3.05-14.35 3.35-17.93 3.65-21.5 4.4-27.05L4.4-27.05Q4.75-29.45 6.3-30.53 7.85-31.6 9.7-31.6L9.7-31.6Q11.25-31.6 14.75-31.7L14.75-31.7 19.1-31.75Q21.8-31.75 23-31.6L23-31.6Q24.5-31.3 25.23-30.93 25.95-30.55 25.95-29.65L25.95-29.65Q25.95-28.65 25.28-27.7 24.6-26.75 23.25-26.75L23.25-26.75Q21.7-26.75 18.8-26.95L18.8-26.95Q15.9-27.15 14.45-27.15L14.45-27.15Q13.2-27.15 12-27L12-27Q10.6-26.9 10-26.65 9.4-26.4 9.3-25.8L9.3-25.8Q8.6-20.65 8.6-18.2L8.6-18.2Q9.75-18.05 10.85-18.05L10.85-18.05Q12.25-18.05 13.85-18.2 15.45-18.35 15.9-18.4L15.9-18.4Q18.55-18.65 20.45-18.65L20.45-18.65Q21.55-18.65 22.13-18.25 22.7-17.85 22.7-17.15L22.7-17.15Q22.7-16.05 22.13-15.45 21.55-14.85 20.1-14.55L20.1-14.55Q18.35-14.2 15.78-14 13.2-13.8 10.75-13.8L10.75-13.8Q9.9-13.8 8.4-13.9L8.4-13.9Q8.25-10.85 8.25-8.25L8.25-8.25Q8.25-4.7 12.95-4.7L12.95-4.7Q15.45-4.7 17.1-5.05 18.75-5.4 20.9-6.05L20.9-6.05Q22.9-6.8 24.1-6.8L24.1-6.8ZM38.35-31.7Q45.15-31.7 49.12-29.83 53.1-27.95 55.15-25.65L55.15-25.65Q56.8-23.75 57.85-21.28 58.9-18.8 58.9-15.35L58.9-15.35Q58.9-12.8 57.75-10.03 56.6-7.25 54.75-5.55L54.75-5.55Q52.8-3.7 51.07-2.55 49.35-1.4 46.42-0.68 43.5 0.05 39 0.05L39 0.05Q35.6 0.05 32.85-0.73 30.1-1.5 30.1-3.35L30.1-3.35Q30.1-4.1 30.77-4.53 31.45-4.95 32.25-4.95L32.25-4.95Q32.7-4.95 32.85-4.9L32.85-4.9Q33.2-8.2 33.2-11.9L33.2-11.9Q33.2-16.05 33-18.78 32.8-21.5 32.45-24.2L32.45-24.2Q32.4-24.55 32.22-26.15 32.05-27.75 32.05-29.4L32.05-29.4Q32.05-30.45 33.1-31.18 34.15-31.9 35.25-31.9L35.25-31.9Q35.9-31.9 37-31.8L37-31.8Q37.9-31.7 38.35-31.7L38.35-31.7ZM37.7-4.65Q38.9-4.45 40.85-4.45L40.85-4.45Q44.15-4.45 47.1-5.83 50.05-7.2 51.85-9.68 53.65-12.15 53.65-15.4L53.65-15.4Q53.65-18.8 52.45-21.2 51.25-23.6 48.75-25.15L48.75-25.15Q46.9-26.3 44.2-26.83 41.5-27.35 37.7-27.35L37.7-27.35Q37.7-26.15 37.85-24.35L37.85-24.35Q37.85-23.75 37.95-22.25L37.95-22.25Q38.25-16.45 38.25-12.9L38.25-12.9Q38.25-7.75 37.7-4.65L37.7-4.65ZM69.55-29Q69.55-27.55 69.45-25.15L69.45-25.15 69.4-21.9Q69.4-17.15 70.1-13.95L70.1-13.95Q71.1-9.45 73.1-7L73.1-7Q74.95-4.85 77.65-4.85L77.65-4.85Q79.75-4.85 81.4-6.13 83.05-7.4 83.95-9.3L83.95-9.3Q85.45-12.4 85.45-16.95L85.45-16.95Q85.45-19.7 85.1-23.45L85.1-23.45Q84.8-27.65 84.8-29.75L84.8-29.75Q84.8-30.85 86.1-31.18 87.4-31.5 88.8-31.5L88.8-31.5Q89.3-31.5 89.95-30.85 90.6-30.2 90.6-29.45L90.6-29.45Q90.6-27.95 90.45-26.6L90.45-26.6Q90.35-25.1 90.35-24.5L90.35-24.5Q90.35-22.6 90.55-19.2L90.55-19.2Q90.6-18.35 90.65-17.15 90.7-15.95 90.7-14.4L90.7-14.4Q90.7-11 89.07-7.63 87.45-4.25 84.55-2.08 81.65 0.1 78 0.1L78 0.1Q72.4 0.1 69.25-3.53 66.1-7.15 64.95-12.9L64.95-12.9Q64.3-16.2 64.12-19.8 63.95-23.4 63.95-29.45L63.95-29.45Q63.95-30.25 64.72-30.95 65.5-31.65 66.4-31.65L66.4-31.65Q69.55-31.65 69.55-29L69.55-29ZM119.89-9.05Q119.89-6.7 118.82-5.03 117.74-3.35 115.29-1.95L115.29-1.95Q113.64-0.95 111.44-0.45 109.24 0.05 106.99 0.05L106.99 0.05Q104.69 0.05 101.29-1.45L101.29-1.45Q98.84-2.65 97.42-4.3 95.99-5.95 95.99-7.9L95.99-7.9Q95.99-9.25 96.59-9.88 97.19-10.5 98.54-10.5L98.54-10.5Q99.24-10.5 99.99-9.93 100.74-9.35 100.89-8.8L100.89-8.8Q101.59-6.75 103.34-5.68 105.09-4.6 107.69-4.6L107.69-4.6Q110.69-4.6 112.72-5.7 114.74-6.8 114.74-8.65L114.74-8.65Q114.74-10.45 112.54-11.85 110.34-13.25 108.04-13.8L108.04-13.8Q104.74-14.7 102.19-15.95L102.19-15.95Q99.54-17.25 98.24-19.15 96.94-21.05 96.94-23.15L96.94-23.15Q96.94-25.1 98.29-27.13 99.64-29.15 101.49-30.05L101.49-30.05Q102.49-30.55 104.92-31.13 107.34-31.7 108.44-31.7L108.44-31.7Q109.89-31.7 111.64-31.35 113.39-31 114.49-30.35L114.49-30.35Q116.69-29.1 117.74-28.1 118.79-27.1 118.79-25.6L118.79-25.6Q118.79-24.7 118.12-24 117.44-23.3 115.79-23.3L115.79-23.3Q115.39-23.3 114.99-23.65 114.59-24 113.99-24.7L113.99-24.7Q113.19-25.75 112.44-26.1L112.44-26.1Q111.69-26.35 110.27-26.65 108.84-26.95 107.74-26.95L107.74-26.95Q106.54-26.95 105.24-26.45 103.94-25.95 103.07-25.03 102.19-24.1 102.19-22.9L102.19-22.9Q102.19-21.9 103.12-21.18 104.04-20.45 105.34-20L105.34-20Q106.84-19.4 108.59-18.95L108.59-18.95Q110.89-18.25 112.37-17.68 113.84-17.1 115.24-16.25L115.24-16.25Q117.69-14.8 118.79-13.28 119.89-11.75 119.89-9.05L119.89-9.05ZM154.39-31.6Q155.09-31.6 156.12-30.68 157.14-29.75 157.14-29.1L157.14-29.1Q157.14-26.05 156.94-20.75L156.94-20.75Q156.89-19.45 156.84-17.63 156.79-15.8 156.79-13.4L156.79-13.4Q156.79-5.8 157.69-2.2L157.69-2.2Q157.64-1 156.74-0.48 155.84 0.05 154.94 0.05L154.94 0.05Q152.94 0.05 152.31-1.35 151.69-2.75 151.69-5.35L151.69-5.35Q151.69-15 151.89-23.1L151.89-23.1Q146.14-16.7 142.94-12.35L142.94-12.35Q142.94-12.35 142.04-11.75L142.04-11.75Q141.19-11 140.64-11L140.64-11Q139.34-11 138.49-11.65 137.64-12.3 136.84-13.55L136.84-13.55 134.44-16.95Q131.94-20.45 130.79-22.25L130.79-22.25Q130.79-17.65 131.24-9.75L131.24-9.75Q131.59-5.2 131.59-2.9L131.59-2.9Q131.59-1.7 130.99-0.88 130.39-0.05 129.09-0.05L129.09-0.05Q127.79-0.05 126.97-0.55 126.14-1.05 126.09-2.05L126.09-2.05Q126.14-2.9 126.14-4.85L126.14-4.85Q126.14-8.75 125.89-14.35L125.89-14.35 125.79-17.05 125.69-20.55Q125.64-22.1 125.59-24.18 125.54-26.25 125.54-28.7L125.54-28.7Q125.54-31.7 128.79-31.7L128.79-31.7Q129.79-31.7 130.81-31.2 131.84-30.7 132.34-29.75L132.34-29.75Q132.74-28 135.29-23.95 137.84-19.9 140.29-16.35L140.29-16.35Q142.49-19.15 143.89-20.55L143.89-20.55Q146.29-23 147.87-25.1 149.44-27.2 151.29-30.15L151.29-30.15Q151.74-30.75 152.59-31.18 153.44-31.6 154.39-31.6L154.39-31.6Z" opacity="1" transform="matrix(1,0,0,1,0,0)" fill="#111111" class="undefined-text-0" data-fill-palette-color="primary"></path></svg></g></svg></g></svg></g></svg></g></svg></g></svg></g><defs></defs></svg><rect width="317.5663942656744" height="51.775999999999996" fill="none" stroke="none" visibility="hidden"></rect></g></svg></g></svg>